<svg width="26" height="15" fill="none" xmlns="http://www.w3.org/2000/svg"><path d="M15.5403 11.7281c.9206-.2897 2.0993 1.9125 3.354 2.7553.9418.6385 1.663.5007 1.663.5007l3.3444-.0469s1.7478-.105.9216-1.4569c-.0684-.1125-.4844-1.0022-2.4893-2.8331-2.0964-1.9153-1.8123-1.605.7116-4.9163 1.5379-2.0184 2.1532-3.2512 1.9606-3.7762-.1849-.5053-1.3144-.374-1.3144-.374l-3.7681.0252c-.3669.001-.6779.1116-.8195.4828-.0029.0038-.598 1.562-1.3915 2.8866-1.6765 2.8022-2.3457 2.9512-2.6231 2.776-.6365-.406-.4757-1.6285-.4757-2.4976 0-2.7159.416-3.8484-.8146-4.1409-.4112-.0975-.7117-.1612-1.7603-.1706-1.3405-.0197-2.4787 0-3.1239.3084-.4285.209-.7569.6675-.5575.6938.2503.0328.8117.15 1.1122.5493.3861.5175.3746 1.6772.3746 1.6772s.2205 3.1978-.52 3.5944c-.5085.2719-1.2037-.2831-2.6992-2.8275-.7636-1.3013-1.3405-2.7394-1.3405-2.7394s-.1117-.2672-.3139-.4134c-.2407-.1734-.5778-.2288-.5778-.2288l-3.5764.0225s-.5373.015-.7347.2457c-.1753.2043-.0145.6262-.0145.6262s2.8013 6.451 5.9733 9.7003c2.9081 2.9832 6.213 2.7853 6.213 2.7853h1.4974s.4516-.0506.6828-.2925c.2157-.225.206-.6478.206-.6478s-.0298-1.9772.9004-2.2678z" fill="#fff"/></svg>